<mxfile host="app.diagrams.net" agent="Mozilla/5.0 (Windows NT 10.0; Win64; x64) AppleWebKit/537.36 (KHTML, like Gecko) Chrome/141.0.0.0 Safari/537.36" version="28.2.5">
  <diagram name="Page-1" id="2ygqq5YEsVggvZt9C7O7">
    <mxGraphModel dx="1181" dy="658" grid="1" gridSize="10" guides="1" tooltips="1" connect="1" arrows="1" fold="1" page="1" pageScale="1" pageWidth="850" pageHeight="1100" math="0" shadow="0" adaptiveColors="none">
      <root>
        <mxCell id="0" />
        <mxCell id="1" parent="0" />
        <mxCell id="rQRGydB8hujRipLv5s7F-52" value="merge with timestamp and&amp;nbsp;&lt;div&gt;cosine similarity&lt;/div&gt;" style="text;html=1;align=center;verticalAlign=middle;resizable=0;points=[];autosize=1;strokeColor=none;fillColor=none;" vertex="1" parent="1">
          <mxGeometry x="895" y="730" width="170" height="40" as="geometry" />
        </mxCell>
        <mxCell id="rQRGydB8hujRipLv5s7F-81" value="normalization/&lt;div&gt;segmentation&lt;/div&gt;" style="whiteSpace=wrap;html=1;" vertex="1" parent="1">
          <mxGeometry x="450" y="680" width="80" height="40" as="geometry" />
        </mxCell>
        <mxCell id="rQRGydB8hujRipLv5s7F-82" style="edgeStyle=orthogonalEdgeStyle;rounded=0;orthogonalLoop=1;jettySize=auto;html=1;entryX=0;entryY=0.5;entryDx=0;entryDy=0;" edge="1" parent="1" source="rQRGydB8hujRipLv5s7F-83">
          <mxGeometry relative="1" as="geometry">
            <mxPoint x="450" y="700" as="targetPoint" />
          </mxGeometry>
        </mxCell>
        <mxCell id="rQRGydB8hujRipLv5s7F-83" value="raw speech file" style="text;html=1;align=center;verticalAlign=middle;resizable=0;points=[];autosize=1;strokeColor=none;fillColor=none;" vertex="1" parent="1">
          <mxGeometry x="320" y="685" width="100" height="30" as="geometry" />
        </mxCell>
        <mxCell id="rQRGydB8hujRipLv5s7F-84" value="1. diarization" style="rounded=0;whiteSpace=wrap;html=1;" vertex="1" parent="1">
          <mxGeometry x="750" y="680" width="80" height="40" as="geometry" />
        </mxCell>
        <mxCell id="rQRGydB8hujRipLv5s7F-85" style="edgeStyle=orthogonalEdgeStyle;rounded=0;orthogonalLoop=1;jettySize=auto;html=1;entryX=0;entryY=0.5;entryDx=0;entryDy=0;" edge="1" parent="1" source="rQRGydB8hujRipLv5s7F-86" target="rQRGydB8hujRipLv5s7F-84">
          <mxGeometry relative="1" as="geometry" />
        </mxCell>
        <mxCell id="rQRGydB8hujRipLv5s7F-86" value="normalized/segmented&amp;nbsp;&lt;div&gt;speech files&lt;/div&gt;" style="text;html=1;align=center;verticalAlign=middle;resizable=0;points=[];autosize=1;strokeColor=none;fillColor=none;" vertex="1" parent="1">
          <mxGeometry x="560" y="680" width="150" height="40" as="geometry" />
        </mxCell>
        <mxCell id="rQRGydB8hujRipLv5s7F-87" style="edgeStyle=orthogonalEdgeStyle;rounded=0;orthogonalLoop=1;jettySize=auto;html=1;entryX=0;entryY=0.5;entryDx=0;entryDy=0;" edge="1" parent="1" target="rQRGydB8hujRipLv5s7F-92">
          <mxGeometry relative="1" as="geometry">
            <mxPoint x="1165.5" y="700" as="sourcePoint" />
          </mxGeometry>
        </mxCell>
        <mxCell id="rQRGydB8hujRipLv5s7F-88" style="edgeStyle=orthogonalEdgeStyle;rounded=0;orthogonalLoop=1;jettySize=auto;html=1;exitX=0.991;exitY=0.478;exitDx=0;exitDy=0;exitPerimeter=0;" edge="1" parent="1" source="rQRGydB8hujRipLv5s7F-89">
          <mxGeometry relative="1" as="geometry">
            <mxPoint x="1010" y="700" as="targetPoint" />
            <mxPoint x="950" y="699.83" as="sourcePoint" />
          </mxGeometry>
        </mxCell>
        <mxCell id="rQRGydB8hujRipLv5s7F-89" value="diarization files" style="text;html=1;align=center;verticalAlign=middle;resizable=0;points=[];autosize=1;strokeColor=none;fillColor=none;" vertex="1" parent="1">
          <mxGeometry x="855" y="685" width="100" height="30" as="geometry" />
        </mxCell>
        <mxCell id="rQRGydB8hujRipLv5s7F-90" value="categorizing llm" style="rounded=0;whiteSpace=wrap;html=1;" vertex="1" parent="1">
          <mxGeometry x="1040" y="761" width="121" height="40" as="geometry" />
        </mxCell>
        <mxCell id="rQRGydB8hujRipLv5s7F-91" style="edgeStyle=orthogonalEdgeStyle;rounded=0;orthogonalLoop=1;jettySize=auto;html=1;" edge="1" parent="1" source="rQRGydB8hujRipLv5s7F-92">
          <mxGeometry relative="1" as="geometry">
            <mxPoint x="1385.5" y="700" as="targetPoint" />
          </mxGeometry>
        </mxCell>
        <mxCell id="rQRGydB8hujRipLv5s7F-92" value="refining llm" style="rounded=0;whiteSpace=wrap;html=1;" vertex="1" parent="1">
          <mxGeometry x="1230" y="680" width="120" height="40" as="geometry" />
        </mxCell>
        <mxCell id="rQRGydB8hujRipLv5s7F-93" value="" style="endArrow=none;html=1;rounded=0;exitX=1;exitY=0.5;exitDx=0;exitDy=0;" edge="1" parent="1" source="rQRGydB8hujRipLv5s7F-90">
          <mxGeometry width="50" height="50" relative="1" as="geometry">
            <mxPoint x="1281" y="761" as="sourcePoint" />
            <mxPoint x="1205.5" y="781" as="targetPoint" />
          </mxGeometry>
        </mxCell>
        <mxCell id="rQRGydB8hujRipLv5s7F-94" value="" style="endArrow=none;html=1;rounded=0;" edge="1" parent="1">
          <mxGeometry width="50" height="50" relative="1" as="geometry">
            <mxPoint x="1205.5" y="780" as="sourcePoint" />
            <mxPoint x="1205.5" y="700" as="targetPoint" />
          </mxGeometry>
        </mxCell>
        <mxCell id="rQRGydB8hujRipLv5s7F-95" value="&lt;span style=&quot;text-wrap-mode: wrap;&quot;&gt;organized &amp;amp; summarized text&lt;/span&gt;" style="text;html=1;align=center;verticalAlign=middle;resizable=0;points=[];autosize=1;strokeColor=none;fillColor=none;" vertex="1" parent="1">
          <mxGeometry x="1335.5" y="685" width="180" height="30" as="geometry" />
        </mxCell>
        <mxCell id="rQRGydB8hujRipLv5s7F-96" style="edgeStyle=orthogonalEdgeStyle;rounded=0;orthogonalLoop=1;jettySize=auto;html=1;" edge="1" parent="1" source="rQRGydB8hujRipLv5s7F-97">
          <mxGeometry relative="1" as="geometry">
            <mxPoint x="850.0000000000002" y="790" as="targetPoint" />
          </mxGeometry>
        </mxCell>
        <mxCell id="rQRGydB8hujRipLv5s7F-97" value="2. speech to text" style="rounded=0;whiteSpace=wrap;html=1;" vertex="1" parent="1">
          <mxGeometry x="750" y="770" width="80" height="40" as="geometry" />
        </mxCell>
        <mxCell id="rQRGydB8hujRipLv5s7F-98" value="speaker-attributed text file" style="text;html=1;align=center;verticalAlign=middle;resizable=0;points=[];autosize=1;strokeColor=none;fillColor=none;" vertex="1" parent="1">
          <mxGeometry x="1010" y="685" width="160" height="30" as="geometry" />
        </mxCell>
        <mxCell id="rQRGydB8hujRipLv5s7F-99" value="" style="endArrow=none;html=1;rounded=0;" edge="1" parent="1">
          <mxGeometry width="50" height="50" relative="1" as="geometry">
            <mxPoint x="730" y="700" as="sourcePoint" />
            <mxPoint x="730" y="790" as="targetPoint" />
          </mxGeometry>
        </mxCell>
        <mxCell id="rQRGydB8hujRipLv5s7F-100" style="edgeStyle=orthogonalEdgeStyle;rounded=0;orthogonalLoop=1;jettySize=auto;html=1;entryX=0;entryY=0.5;entryDx=0;entryDy=0;entryPerimeter=0;" edge="1" parent="1" source="rQRGydB8hujRipLv5s7F-81" target="rQRGydB8hujRipLv5s7F-86">
          <mxGeometry relative="1" as="geometry" />
        </mxCell>
        <mxCell id="rQRGydB8hujRipLv5s7F-101" style="edgeStyle=orthogonalEdgeStyle;rounded=0;orthogonalLoop=1;jettySize=auto;html=1;entryX=0;entryY=0.5;entryDx=0;entryDy=0;entryPerimeter=0;" edge="1" parent="1" source="rQRGydB8hujRipLv5s7F-84" target="rQRGydB8hujRipLv5s7F-89">
          <mxGeometry relative="1" as="geometry" />
        </mxCell>
        <mxCell id="rQRGydB8hujRipLv5s7F-102" value="" style="endArrow=classic;html=1;rounded=0;entryX=0;entryY=0.5;entryDx=0;entryDy=0;" edge="1" parent="1" target="rQRGydB8hujRipLv5s7F-97">
          <mxGeometry width="50" height="50" relative="1" as="geometry">
            <mxPoint x="730" y="790" as="sourcePoint" />
            <mxPoint x="790" y="780" as="targetPoint" />
          </mxGeometry>
        </mxCell>
        <mxCell id="rQRGydB8hujRipLv5s7F-103" value="speech text files" style="text;html=1;align=center;verticalAlign=middle;resizable=0;points=[];autosize=1;strokeColor=none;fillColor=none;" vertex="1" parent="1">
          <mxGeometry x="850" y="775" width="110" height="30" as="geometry" />
        </mxCell>
        <mxCell id="rQRGydB8hujRipLv5s7F-104" value="" style="endArrow=none;html=1;rounded=0;" edge="1" parent="1">
          <mxGeometry width="50" height="50" relative="1" as="geometry">
            <mxPoint x="960" y="790" as="sourcePoint" />
            <mxPoint x="980" y="790" as="targetPoint" />
          </mxGeometry>
        </mxCell>
        <mxCell id="rQRGydB8hujRipLv5s7F-105" value="" style="endArrow=none;html=1;rounded=0;" edge="1" parent="1">
          <mxGeometry width="50" height="50" relative="1" as="geometry">
            <mxPoint x="980" y="790" as="sourcePoint" />
            <mxPoint x="980" y="700" as="targetPoint" />
          </mxGeometry>
        </mxCell>
        <mxCell id="rQRGydB8hujRipLv5s7F-106" value="" style="endArrow=classic;html=1;rounded=0;entryX=0.5;entryY=0;entryDx=0;entryDy=0;" edge="1" parent="1" target="rQRGydB8hujRipLv5s7F-90">
          <mxGeometry width="50" height="50" relative="1" as="geometry">
            <mxPoint x="1100" y="720" as="sourcePoint" />
            <mxPoint x="1130" y="760" as="targetPoint" />
          </mxGeometry>
        </mxCell>
        <mxCell id="rQRGydB8hujRipLv5s7F-107" value="" style="endArrow=none;html=1;rounded=0;dashed=1;" edge="1" parent="1">
          <mxGeometry width="50" height="50" relative="1" as="geometry">
            <mxPoint x="310" y="660" as="sourcePoint" />
            <mxPoint x="1180" y="660" as="targetPoint" />
          </mxGeometry>
        </mxCell>
        <mxCell id="rQRGydB8hujRipLv5s7F-108" value="" style="endArrow=none;html=1;rounded=0;dashed=1;" edge="1" parent="1">
          <mxGeometry width="50" height="50" relative="1" as="geometry">
            <mxPoint x="310" y="820" as="sourcePoint" />
            <mxPoint x="310" y="660" as="targetPoint" />
          </mxGeometry>
        </mxCell>
        <mxCell id="rQRGydB8hujRipLv5s7F-109" value="" style="endArrow=none;html=1;rounded=0;dashed=1;" edge="1" parent="1">
          <mxGeometry width="50" height="50" relative="1" as="geometry">
            <mxPoint x="310" y="820" as="sourcePoint" />
            <mxPoint x="1010" y="820" as="targetPoint" />
          </mxGeometry>
        </mxCell>
        <mxCell id="rQRGydB8hujRipLv5s7F-110" value="" style="endArrow=none;html=1;rounded=0;dashed=1;" edge="1" parent="1">
          <mxGeometry width="50" height="50" relative="1" as="geometry">
            <mxPoint x="1180" y="740" as="sourcePoint" />
            <mxPoint x="1180" y="660" as="targetPoint" />
          </mxGeometry>
        </mxCell>
        <mxCell id="rQRGydB8hujRipLv5s7F-111" value="" style="endArrow=none;html=1;rounded=0;dashed=1;" edge="1" parent="1">
          <mxGeometry width="50" height="50" relative="1" as="geometry">
            <mxPoint x="1010" y="740" as="sourcePoint" />
            <mxPoint x="1180" y="740" as="targetPoint" />
          </mxGeometry>
        </mxCell>
        <mxCell id="rQRGydB8hujRipLv5s7F-112" value="" style="endArrow=none;html=1;rounded=0;dashed=1;" edge="1" parent="1">
          <mxGeometry width="50" height="50" relative="1" as="geometry">
            <mxPoint x="1010" y="820" as="sourcePoint" />
            <mxPoint x="1010" y="740" as="targetPoint" />
          </mxGeometry>
        </mxCell>
        <mxCell id="rQRGydB8hujRipLv5s7F-113" value="python, whisper, pyannote.audio" style="text;html=1;align=center;verticalAlign=middle;resizable=0;points=[];autosize=1;strokeColor=none;fillColor=none;" vertex="1" parent="1">
          <mxGeometry x="650" y="630" width="200" height="30" as="geometry" />
        </mxCell>
        <mxCell id="rQRGydB8hujRipLv5s7F-114" value="" style="endArrow=none;dashed=1;html=1;rounded=0;" edge="1" parent="1">
          <mxGeometry width="50" height="50" relative="1" as="geometry">
            <mxPoint x="1190" y="750" as="sourcePoint" />
            <mxPoint x="1190" y="660" as="targetPoint" />
          </mxGeometry>
        </mxCell>
        <mxCell id="rQRGydB8hujRipLv5s7F-115" value="" style="endArrow=none;dashed=1;html=1;rounded=0;" edge="1" parent="1">
          <mxGeometry width="50" height="50" relative="1" as="geometry">
            <mxPoint x="1030" y="750" as="sourcePoint" />
            <mxPoint x="1190" y="750" as="targetPoint" />
          </mxGeometry>
        </mxCell>
        <mxCell id="rQRGydB8hujRipLv5s7F-116" value="" style="endArrow=none;dashed=1;html=1;rounded=0;" edge="1" parent="1">
          <mxGeometry width="50" height="50" relative="1" as="geometry">
            <mxPoint x="1470" y="660" as="sourcePoint" />
            <mxPoint x="1190" y="660" as="targetPoint" />
          </mxGeometry>
        </mxCell>
        <mxCell id="rQRGydB8hujRipLv5s7F-117" value="" style="endArrow=none;dashed=1;html=1;rounded=0;" edge="1" parent="1">
          <mxGeometry width="50" height="50" relative="1" as="geometry">
            <mxPoint x="1470" y="820" as="sourcePoint" />
            <mxPoint x="1470" y="660" as="targetPoint" />
          </mxGeometry>
        </mxCell>
        <mxCell id="rQRGydB8hujRipLv5s7F-118" value="" style="endArrow=none;dashed=1;html=1;rounded=0;" edge="1" parent="1">
          <mxGeometry width="50" height="50" relative="1" as="geometry">
            <mxPoint x="1030" y="820" as="sourcePoint" />
            <mxPoint x="1470" y="820" as="targetPoint" />
          </mxGeometry>
        </mxCell>
        <mxCell id="rQRGydB8hujRipLv5s7F-119" value="" style="endArrow=none;dashed=1;html=1;rounded=0;" edge="1" parent="1">
          <mxGeometry width="50" height="50" relative="1" as="geometry">
            <mxPoint x="1030" y="820" as="sourcePoint" />
            <mxPoint x="1030" y="750" as="targetPoint" />
          </mxGeometry>
        </mxCell>
        <mxCell id="rQRGydB8hujRipLv5s7F-120" value="python, llama.cpp or transformers" style="text;html=1;align=center;verticalAlign=middle;resizable=0;points=[];autosize=1;strokeColor=none;fillColor=none;" vertex="1" parent="1">
          <mxGeometry x="1235" y="630" width="200" height="30" as="geometry" />
        </mxCell>
      </root>
    </mxGraphModel>
  </diagram>
</mxfile>
